<svg xmlns="http://www.w3.org/2000/svg" xmlns:xlink="http://www.w3.org/1999/xlink" width="500" zoomAndPan="magnify" viewBox="0 0 375 374.999991" height="500" preserveAspectRatio="xMidYMid meet" version="1.0"><defs><clipPath id="2715cdf83e"><path d="M 187.5 0 C 83.945312 0 0 83.945312 0 187.5 C 0 291.054688 83.945312 375 187.5 375 C 291.054688 375 375 291.054688 375 187.5 C 375 83.945312 291.054688 0 187.5 0 " clip-rule="nonzero"/></clipPath><clipPath id="f2ae8aa569"><path d="M 53 93.75 L 357.582031 93.75 L 357.582031 281 L 53 281 Z M 53 93.75 " clip-rule="nonzero"/></clipPath><clipPath id="3bd0a60c32"><path d="M 104 93.75 L 132 93.75 L 132 111 L 104 111 Z M 104 93.75 " clip-rule="nonzero"/></clipPath><clipPath id="cd30b447dc"><path d="M 17.082031 162 L 45 162 L 45 180 L 17.082031 180 Z M 17.082031 162 " clip-rule="nonzero"/></clipPath></defs><g clip-path="url(#2715cdf83e)"><rect x="-37.5" width="450" fill="#000000" y="-37.499999" height="449.999989" fill-opacity="1"/></g><path fill="#ffffff" d="M 237.117188 136.417969 L 230.570312 175.886719 C 232.765625 175.253906 234.988281 174.277344 237.160156 173.53125 C 242.949219 171.523438 250.402344 168.425781 256.410156 166.167969 C 260.664062 164.570312 265.070312 162.871094 269.273438 161.230469 C 271.003906 160.554688 281.445312 156.691406 282.113281 156.242188 C 281.480469 154.765625 275.597656 148.929688 274.222656 147.914062 C 273.476562 147.363281 272.792969 146.714844 271.96875 146.15625 C 271.144531 145.597656 270.414062 145.0625 269.507812 144.449219 C 264.789062 141.214844 257.984375 138.453125 252.152344 137.269531 C 248.050781 136.4375 241.34375 135.710938 237.117188 136.417969 Z M 195.875 164.726562 C 196.507812 165.527344 203.554688 171.257812 205 172.570312 C 208.671875 175.910156 214.21875 180.167969 218.015625 183.625 C 220.101562 185.523438 223.230469 187.945312 225.492188 189.917969 C 225.601562 189.753906 225.527344 189.945312 225.636719 189.585938 L 234.371094 136.710938 C 222.523438 138.386719 214.011719 143.449219 206.449219 150.328125 C 204.96875 151.675781 203.910156 153.042969 202.4375 154.65625 C 201.847656 155.308594 201.105469 156.25 200.609375 157 C 199.152344 159.171875 198.777344 159.546875 197.328125 162.0625 C 196.863281 162.859375 196.375 164.003906 195.882812 164.734375 Z M 246.859375 172.636719 C 247.25 172.929688 247.589844 173.304688 248.023438 173.636719 C 248.5 174.003906 248.832031 174.296875 249.363281 174.703125 C 249.855469 175.078125 250.222656 175.285156 250.753906 175.726562 L 256.054688 179.902344 C 256.527344 180.257812 256.910156 180.632812 257.367188 180.984375 C 258.332031 181.722656 258.980469 182.289062 259.964844 183.039062 L 281.136719 199.714844 C 282.046875 200.371094 282.96875 201.136719 283.859375 201.8125 L 289.082031 205.925781 C 290.441406 203.253906 291.753906 197.546875 292.195312 194.117188 C 293.59375 183.324219 291.738281 172.648438 286.671875 163.210938 C 285.738281 161.480469 284.757812 160.054688 283.859375 158.488281 Z M 248.625 237.707031 C 252.183594 237.679688 259.207031 235.234375 262.117188 233.964844 C 266.410156 232.101562 272.09375 228.578125 275.246094 225.605469 C 276.089844 224.8125 276.746094 224.28125 277.503906 223.53125 C 278.285156 222.757812 278.785156 222.125 279.617188 221.316406 C 280.28125 220.667969 280.886719 219.757812 281.496094 219.019531 C 283.21875 216.910156 287.34375 210.980469 288.019531 208.367188 L 257.890625 184.746094 C 257.367188 185.804688 256.917969 189.902344 256.652344 191.410156 L 250.929688 224.515625 C 250.171875 228.835938 249.539062 233.492188 248.632812 237.707031 Z M 252.507812 199.628906 L 201.347656 218.34375 C 202.914062 220.441406 205.183594 223.015625 207.148438 224.679688 C 207.8125 225.238281 208.535156 226.078125 209.261719 226.570312 C 210.667969 227.539062 212.046875 228.828125 213.976562 230.035156 C 219.496094 233.5 224.371094 235.617188 231.109375 237.125 C 234.171875 237.804688 242.914062 238.8125 245.9375 237.980469 L 252.515625 199.628906 Z M 194.757812 167.359375 C 194.078125 168.472656 193.113281 171.621094 192.6875 173.128906 C 188.984375 186.039062 190.550781 199.570312 196.773438 211.304688 L 199.617188 216.085938 C 201.507812 215.585938 206.640625 213.53125 208.988281 212.714844 C 212.089844 211.628906 215.078125 210.488281 218.15625 209.375 C 221.207031 208.273438 224.269531 207.167969 227.316406 206.027344 C 228.148438 205.71875 235.820312 203.167969 236.433594 202.542969 Z M 194.757812 167.359375 " fill-opacity="1" fill-rule="evenodd"/><path fill="#ffffff" d="M 75.273438 128.472656 L 39.105469 128.472656 C 34.4375 128.472656 30.621094 132.296875 30.621094 136.96875 C 30.621094 141.640625 34.4375 145.464844 39.105469 145.464844 L 75.273438 145.464844 C 79.941406 145.464844 83.761719 141.640625 83.761719 136.96875 C 83.761719 132.296875 79.941406 128.472656 75.273438 128.472656 Z M 75.273438 128.472656 " fill-opacity="1" fill-rule="evenodd"/><g clip-path="url(#f2ae8aa569)"><path fill="#3454d1" d="M 245.09375 248.816406 C 243.957031 248.882812 242.808594 248.90625 241.652344 248.90625 C 241.542969 248.90625 241.425781 248.90625 241.316406 248.90625 C 241.210938 248.90625 241.101562 248.90625 240.984375 248.90625 C 207.132812 248.90625 179.675781 221.425781 179.675781 187.539062 C 179.675781 153.648438 207.132812 126.167969 240.984375 126.167969 C 241.09375 126.167969 241.203125 126.167969 241.316406 126.167969 C 241.425781 126.167969 241.535156 126.167969 241.652344 126.167969 C 242.808594 126.167969 243.957031 126.199219 245.09375 126.257812 C 277.351562 128.050781 302.960938 154.800781 302.960938 187.539062 C 302.960938 220.265625 277.351562 247.023438 245.09375 248.816406 Z M 292.785156 94.070312 L 242.890625 94.070312 C 242.367188 94.046875 241.851562 94.039062 241.328125 94.039062 C 240.800781 94.03125 240.285156 94.039062 239.761719 94.070312 L 152.003906 94.070312 C 147.335938 94.070312 143.515625 97.894531 143.515625 102.566406 C 143.515625 107.238281 147.335938 111.058594 152.003906 111.058594 L 186.789062 111.058594 C 186.863281 111.058594 186.929688 111.070312 187.003906 111.070312 L 187.011719 111.070312 C 187.15625 111.078125 187.296875 111.085938 187.4375 111.101562 L 187.445312 111.101562 C 187.511719 111.109375 187.585938 111.117188 187.652344 111.128906 C 187.863281 111.152344 188.070312 111.183594 188.277344 111.226562 L 188.285156 111.226562 L 188.484375 111.269531 L 188.683594 111.320312 L 188.886719 111.375 L 189.078125 111.433594 L 189.09375 111.433594 L 189.285156 111.492188 L 189.300781 111.492188 L 189.425781 111.535156 C 189.582031 111.59375 189.742188 111.652344 189.898438 111.71875 C 192.9375 113.015625 195.074219 116.039062 195.074219 119.539062 C 195.074219 124.210938 191.257812 128.03125 186.589844 128.03125 L 109.84375 128.03125 C 105.175781 128.03125 101.359375 131.855469 101.359375 136.527344 C 101.359375 141.199219 105.175781 145.023438 109.84375 145.023438 L 142.867188 145.023438 L 143.023438 145.03125 L 143.089844 145.03125 L 143.242188 145.039062 L 143.289062 145.039062 L 143.480469 145.054688 L 143.5 145.054688 L 143.683594 145.074219 L 143.738281 145.082031 L 143.882812 145.097656 L 143.941406 145.105469 L 144.113281 145.128906 L 144.132812 145.128906 L 144.324219 145.164062 L 144.371094 145.171875 L 144.515625 145.207031 L 144.570312 145.222656 L 144.722656 145.253906 L 144.753906 145.265625 L 144.9375 145.3125 L 144.980469 145.320312 L 145.121094 145.363281 L 145.179688 145.378906 L 145.304688 145.421875 L 145.363281 145.4375 L 145.539062 145.496094 L 145.554688 145.503906 L 145.710938 145.5625 L 145.761719 145.582031 L 145.894531 145.628906 L 145.945312 145.65625 L 146.113281 145.730469 L 146.121094 145.730469 L 146.285156 145.8125 L 146.335938 145.839844 L 146.460938 145.898438 L 146.511719 145.921875 L 146.644531 145.996094 L 146.667969 146.011719 L 146.835938 146.105469 L 146.867188 146.121094 L 146.992188 146.195312 L 147.042969 146.222656 L 147.167969 146.296875 L 147.203125 146.320312 L 147.359375 146.421875 L 147.382812 146.4375 L 147.507812 146.53125 L 147.558594 146.5625 L 147.667969 146.644531 L 147.707031 146.679688 L 147.859375 146.796875 L 148 146.914062 L 148.042969 146.945312 L 148.148438 147.039062 L 148.191406 147.070312 L 148.316406 147.179688 L 148.332031 147.195312 L 148.464844 147.320312 L 148.773438 147.628906 L 148.898438 147.761719 L 148.921875 147.789062 L 149.023438 147.894531 L 149.066406 147.9375 L 149.15625 148.046875 L 149.179688 148.078125 L 149.296875 148.230469 L 149.304688 148.238281 L 149.414062 148.371094 L 149.449219 148.421875 L 149.523438 148.519531 L 149.554688 148.570312 L 149.65625 148.710938 L 149.664062 148.726562 L 149.773438 148.886719 L 149.796875 148.921875 L 149.871094 149.046875 L 149.898438 149.09375 L 149.972656 149.226562 L 149.988281 149.253906 L 150.078125 149.417969 L 150.105469 149.460938 L 150.171875 149.585938 L 150.195312 149.636719 L 150.261719 149.761719 L 150.28125 149.804688 L 150.363281 149.96875 L 150.371094 149.996094 L 150.4375 150.144531 L 150.460938 150.195312 L 150.511719 150.328125 L 150.527344 150.378906 L 150.539062 150.410156 C 150.605469 150.570312 150.652344 150.734375 150.710938 150.902344 C 150.96875 151.71875 151.113281 152.574219 151.113281 153.476562 C 151.113281 158.148438 147.292969 161.96875 142.625 161.96875 L 62.261719 161.96875 C 57.59375 161.96875 53.773438 165.792969 53.773438 170.464844 C 53.773438 175.136719 57.59375 178.960938 62.261719 178.960938 L 124.6875 178.960938 L 124.679688 178.984375 C 124.894531 179 125.101562 179.027344 125.3125 179.050781 C 129.394531 179.660156 132.550781 183.207031 132.550781 187.453125 C 132.550781 191.703125 129.394531 195.25 125.3125 195.855469 C 125.101562 195.890625 124.894531 195.914062 124.679688 195.925781 L 124.6875 195.949219 L 79.683594 195.949219 C 75.015625 195.949219 71.195312 199.769531 71.195312 204.445312 C 71.195312 209.117188 75.015625 212.9375 79.683594 212.9375 L 142.625 212.9375 C 147.292969 212.9375 151.113281 216.761719 151.113281 221.433594 C 151.113281 222.332031 150.96875 223.191406 150.710938 224.007812 C 150.664062 224.171875 150.605469 224.332031 150.539062 224.496094 L 150.527344 224.523438 L 150.511719 224.574219 L 150.460938 224.699219 L 150.4375 224.753906 L 150.378906 224.898438 L 150.371094 224.921875 L 150.296875 225.089844 L 150.269531 225.140625 L 150.214844 225.265625 L 150.128906 225.4375 L 150.105469 225.488281 L 150.011719 225.648438 L 149.996094 225.679688 L 149.921875 225.804688 L 149.886719 225.855469 L 149.8125 225.972656 L 149.789062 226.011719 L 149.6875 226.171875 L 149.671875 226.195312 L 149.582031 226.328125 L 149.539062 226.378906 L 149.464844 226.480469 L 149.429688 226.53125 L 149.332031 226.664062 L 149.316406 226.679688 L 149.199219 226.820312 L 149.164062 226.855469 L 149.074219 226.960938 L 149.03125 227.003906 L 148.941406 227.113281 L 148.90625 227.144531 L 148.78125 227.277344 L 148.75 227.3125 L 148.648438 227.414062 L 148.605469 227.453125 L 148.507812 227.554688 L 148.472656 227.585938 L 148.339844 227.710938 L 148.199219 227.828125 L 148.15625 227.871094 L 148.058594 227.953125 L 148.007812 227.996094 L 147.875 228.105469 L 147.867188 228.113281 L 147.726562 228.21875 L 147.683594 228.253906 L 147.527344 228.371094 L 147.402344 228.460938 L 147.375 228.476562 L 147.21875 228.578125 L 147.183594 228.601562 L 147.058594 228.679688 L 147.011719 228.703125 L 146.886719 228.777344 L 146.851562 228.792969 L 146.683594 228.886719 L 146.660156 228.902344 L 146.527344 228.976562 L 146.476562 229.003906 L 146.351562 229.0625 L 146.304688 229.085938 L 146.136719 229.167969 L 146.128906 229.179688 L 145.960938 229.253906 L 145.910156 229.277344 L 145.777344 229.328125 L 145.730469 229.34375 L 145.570312 229.402344 L 145.554688 229.410156 L 145.378906 229.46875 L 145.320312 229.484375 L 145.195312 229.527344 L 145.136719 229.542969 L 144.996094 229.585938 L 144.953125 229.59375 L 144.773438 229.644531 L 144.738281 229.652344 L 144.589844 229.6875 L 144.53125 229.703125 L 144.496094 229.710938 C 144.03125 229.8125 143.574219 229.878906 143.125 229.902344 L 143.074219 229.902344 L 142.964844 229.910156 L 109.894531 229.910156 C 105.226562 229.910156 101.40625 233.734375 101.40625 238.40625 C 101.40625 243.078125 105.226562 246.898438 109.894531 246.898438 L 186.636719 246.898438 C 191.304688 246.898438 195.125 250.722656 195.125 255.394531 C 195.125 258.894531 192.988281 261.914062 189.949219 263.214844 C 189.792969 263.28125 189.632812 263.347656 189.476562 263.398438 L 189.964844 263.890625 L 152.058594 263.890625 C 147.394531 263.890625 143.574219 267.710938 143.574219 272.382812 C 143.574219 277.054688 147.394531 280.878906 152.058594 280.878906 L 239.828125 280.878906 L 239.789062 280.878906 C 240.320312 280.902344 240.851562 280.921875 241.386719 280.914062 C 241.917969 280.921875 242.449219 280.914062 242.980469 280.878906 L 242.941406 280.878906 L 306.171875 280.878906 C 334.476562 280.878906 357.632812 257.703125 357.632812 229.371094 L 357.632812 145.429688 C 357.632812 117.097656 334.476562 93.921875 306.171875 93.921875 L 292.835938 93.921875 Z M 292.785156 94.070312 " fill-opacity="1" fill-rule="evenodd"/></g><path fill="#ffffff" d="M 55.265625 195.992188 L 37.175781 195.992188 C 32.507812 195.992188 28.691406 199.8125 28.691406 204.484375 C 28.691406 209.15625 32.507812 212.980469 37.175781 212.980469 L 55.265625 212.980469 C 59.933594 212.980469 63.75 209.15625 63.75 204.484375 C 63.75 199.8125 59.933594 195.992188 55.265625 195.992188 Z M 55.265625 195.992188 " fill-opacity="1" fill-rule="evenodd"/><path fill="#ffffff" d="M 125.292969 263.824219 L 58.160156 263.824219 C 53.492188 263.824219 49.671875 267.644531 49.671875 272.316406 C 49.671875 276.988281 53.492188 280.8125 58.160156 280.8125 L 125.292969 280.8125 C 129.960938 280.8125 133.78125 276.988281 133.78125 272.316406 C 133.78125 267.644531 129.960938 263.824219 125.292969 263.824219 Z M 125.292969 263.824219 " fill-opacity="1" fill-rule="evenodd"/><g clip-path="url(#3bd0a60c32)"><path fill="#ffffff" d="M 123.363281 93.953125 L 113.347656 93.953125 C 108.679688 93.953125 104.859375 97.777344 104.859375 102.449219 C 104.859375 107.121094 108.679688 110.945312 113.347656 110.945312 L 123.363281 110.945312 C 128.03125 110.945312 131.851562 107.121094 131.851562 102.449219 C 131.851562 97.777344 128.03125 93.953125 123.363281 93.953125 Z M 123.363281 93.953125 " fill-opacity="1" fill-rule="evenodd"/></g><path fill="#ffffff" d="M 75.921875 230.101562 L 65.90625 230.101562 C 61.238281 230.101562 57.417969 233.925781 57.417969 238.597656 C 57.417969 243.269531 61.238281 247.09375 65.90625 247.09375 L 75.921875 247.09375 C 80.589844 247.09375 84.410156 243.269531 84.410156 238.597656 C 84.410156 233.925781 80.589844 230.101562 75.921875 230.101562 Z M 75.921875 230.101562 " fill-opacity="1" fill-rule="evenodd"/><g clip-path="url(#cd30b447dc)"><path fill="#ffffff" d="M 35.585938 162.113281 L 25.570312 162.113281 C 20.902344 162.113281 17.082031 165.933594 17.082031 170.605469 C 17.082031 175.277344 20.902344 179.101562 25.570312 179.101562 L 35.585938 179.101562 C 40.253906 179.101562 44.074219 175.277344 44.074219 170.605469 C 44.074219 165.933594 40.253906 162.113281 35.585938 162.113281 Z M 35.585938 162.113281 " fill-opacity="1" fill-rule="evenodd"/></g></svg>